<svg style="fill: currentColor" width="16px" height="17px" viewBox="0 0 16 17" version="1.1" xmlns="http://www.w3.org/2000/svg" xmlns:xlink="http://www.w3.org/1999/xlink">
    <title>DEF2012F-CD44-4B77-922C-47C9AACFD32B</title>
    <g id="h-styles">
        <g id="Navigatie-en-Headers-Styles-Desktop" transform="translate(-1192.000000, -1106.000000)">
            <g id="Group-3" transform="translate(0.000000, 874.000000)">
                <g id="04_social" transform="translate(1068.000000, 194.000000)">
                    <g id="Group-5" transform="translate(124.000000, 38.000000)">
                        <path d="M16,8 C16,3.58171875 12.4182812,0 8,0 C3.58171875,0 0,3.58171875 0,8 C0,11.9930312 2.92548437,15.3026563 6.75,15.9027656 L6.75,10.3125 L4.71875,10.3125 L4.71875,8 L6.75,8 L6.75,6.2375 C6.75,4.2325 7.94434375,3.125 9.77171875,3.125 C10.6469844,3.125 11.5625,3.28125 11.5625,3.28125 L11.5625,5.25 L10.5537187,5.25 C9.55992188,5.25 9.25,5.86667187 9.25,6.49932812 L9.25,8 L11.46875,8 L11.1140625,10.3125 L9.25,10.3125 L9.25,15.9027656 C13.0745156,15.3026563 16,11.9930312 16,8" id="Fill-1"></path>
                        <path d="M11.1140594,10.3125 L11.4687469,8 L9.24999688,8 L9.24999688,6.49932812 C9.24999688,5.86667187 9.55991875,5.25 10.5537156,5.25 L11.5624969,5.25 L11.5624969,3.28125 C11.5624969,3.28125 10.6469812,3.125 9.77171563,3.125 C7.94435625,3.125 6.74999688,4.2325 6.74999688,6.2375 L6.74999688,8 L4.71874687,8 L4.71874687,10.3125 L6.74999688,10.3125 L6.74999688,15.9027656 C7.15730938,15.9666875 7.57474688,16 7.99999688,16 C8.42524687,16 8.8427,15.9666875 9.24999688,15.9027656 L9.24999688,10.3125 L11.1140594,10.3125 Z" id="Fill-3" fill="#FFFFFF"></path>
                    </g>
                </g>
            </g>
        </g>
    </g>
</svg>