<?xml version="1.0" encoding="UTF-8"?>
<svg xmlns="http://www.w3.org/2000/svg" width="206" height="65" viewBox="0 0 206 65" fill="none">
  <path d="M13.503 47.6409V62.7043C12.1915 63.627 10.5925 64.1687 8.86649 64.1687C5.19534 64.1687 2.09624 61.7177 1.11721 58.363C1.11645 58.3622 1.11569 58.3614 1.11645 58.3599C1.11264 58.344 1.10808 58.3272 1.10352 58.3105C3.86943 54.3107 7.51548 50.9667 11.7625 48.559C12.3323 48.2357 12.9127 47.9292 13.503 47.6409Z" fill="url(#paint0_linear_406_2714)"></path>
  <path d="M29.8816 0.781246C28.5063 7.54467 24.0471 13.1875 18.0359 16.1786H18.0352C17.5103 16.4 16.9908 16.6335 16.4788 16.8785L16.4781 16.8792C11.0147 19.4915 6.30063 23.419 2.74661 28.2525C2.18979 26.3112 1.8916 24.2604 1.8916 22.1395C1.8916 20.6204 2.04448 19.1362 2.33584 17.7031C4.39048 7.60172 13.3226 0 24.0311 0C26.0561 7.40917e-06 28.0179 0.271598 29.8816 0.781246Z" fill="#0CC988"></path>
  <path d="M40.2427 18.6668C39.0096 29.9488 31.9579 39.4819 22.1516 44.1998C20.8645 44.819 19.5303 45.3553 18.1549 45.8018C18.1473 45.8041 18.1405 45.8064 18.1329 45.8087C17.9883 45.8528 17.8446 45.8984 17.7008 45.9456C17.6932 45.9471 17.6863 45.9502 17.6787 45.9524C10.8872 48.157 5.08378 52.5546 1.10376 58.3101C0.384137 55.6339 0 52.8193 0 49.9157C0 48.7184 0.0654081 47.5362 0.193224 46.3731C0.721891 41.5267 2.32546 37.0035 4.75971 33.0456C10.433 23.819 20.6219 17.6672 32.2477 17.6672C35.0075 17.6672 37.686 18.0141 40.2427 18.6668Z" fill="#0CC988"></path>
  <path d="M54.7117 34.5381H67.1153V40.5681H54.7117V53.8686H48.3955V22.02H68.5656V28.0501H54.7117V34.5381Z" fill="white"></path>
  <path d="M78.7363 22.02V53.8686H72.6299V22.02H78.7363Z" fill="white"></path>
  <path d="M94.2497 32.5154C100.547 32.5154 105.604 37.1524 105.604 43.3733C105.604 49.6514 100.471 54.3266 94.1734 54.3266C87.8762 54.3266 82.8193 49.7468 82.8193 43.4878C82.8193 37.2478 87.9525 32.5154 94.2497 32.5154ZM94.2116 48.7355C97.074 48.7355 99.3638 46.5791 99.3638 43.4114C99.3638 40.2629 97.0549 38.0875 94.1925 38.0875C91.3492 38.0875 89.0593 40.2629 89.0593 43.4114C89.0593 46.5791 91.3683 48.7355 94.2116 48.7355Z" fill="white"></path>
  <path d="M122.568 38.9652C121.767 38.8125 120.889 38.8125 120.622 38.8125C117.702 38.8125 115.66 40.8543 115.66 44.7281V53.8686H109.688V33.0115H115.469V36.0456H115.527C116.672 33.6603 118.771 32.7825 120.927 32.7825C121.385 32.7825 122.129 32.8779 122.568 32.9924V38.9652Z" fill="white"></path>
  <path d="M129.211 21.9246C131.348 21.9246 133.046 23.6229 133.046 25.722C133.046 27.802 131.348 29.5003 129.211 29.5003C127.169 29.5003 125.471 27.802 125.471 25.722C125.471 23.6229 127.169 21.9246 129.211 21.9246ZM126.215 53.8686H132.321V33.0115H126.215V53.8686Z" fill="white"></path>
  <path d="M152.915 51.2161H152.838C150.892 54.0785 147.743 54.2693 146.35 54.2693C140.301 54.2693 136.408 49.0407 136.408 43.4114C136.408 38.1256 140.435 32.5917 146.446 32.5917C147.629 32.5917 150.548 32.8397 152.666 35.3968H152.743V22.0391H158.83V53.8686H152.915V51.2161ZM147.762 38.1065C144.9 38.1065 142.591 40.2628 142.591 43.4114C142.591 46.5791 144.9 48.7354 147.743 48.7354C150.606 48.7354 152.915 46.5791 152.915 43.4114C152.915 40.2628 150.625 38.1065 147.762 38.1065Z" fill="white"></path>
  <path d="M162.895 48.0485V47.8767C162.895 42.8962 168.028 41.4842 172.092 41.4842H174.134C175.279 41.4842 175.775 40.8926 175.775 40.053C175.775 38.6981 174.687 37.4578 172.474 37.4578C170.623 37.4578 169.192 38.5455 168.734 40.301L163.391 39.0988C164.097 34.6526 168.39 32.5154 172.76 32.5154C177.951 32.5154 181.767 35.3205 181.767 40.9307V50.5101C181.767 51.636 181.805 52.7618 181.939 53.8686H176.252C176.119 53.0672 176.119 52.0749 176.119 51.2734L176.061 51.2543C174.478 53.4869 172.111 54.2694 169.84 54.2694C166.215 54.2694 162.895 51.9032 162.895 48.0485ZM175.737 45.7968V45.3197H172.092C170.833 45.3197 169.058 46.0639 169.058 47.705C169.058 49.1935 170.298 49.8231 171.596 49.8231C174.268 49.8231 175.737 47.8767 175.737 45.7968Z" fill="white"></path>
  <path d="M191.918 51.655L183.14 33.0115H189.838L195.066 44.938L199.722 33.0115H206L193.33 64.154H186.823L191.918 51.655Z" fill="white"></path>
  <defs>
    <linearGradient id="paint0_linear_406_2714" x1="12.9766" y1="63.0456" x2="6.39968" y2="51.6541" gradientUnits="userSpaceOnUse">
      <stop stop-color="#0AAD75"></stop>
      <stop offset="1" stop-color="#008C5C"></stop>
    </linearGradient>
  </defs>
</svg>
