<svg style="fill: currentColor" width="16px" height="16px" viewBox="0 0 16 16" version="1.1" xmlns="http://www.w3.org/2000/svg" xmlns:xlink="http://www.w3.org/1999/xlink">
    <title>245F5A80-83F1-4578-B721-7F4F3925E79A</title>
    <defs>
        <polygon id="path-1" points="0 0 15.9995597 0 15.9995597 16 0 16"></polygon>
    </defs>
    <g id="h-styles">
        <g id="Navigatie-en-Headers-Styles-Desktop" transform="translate(-1112.000000, -1106.000000)">
            <g id="Group-3" transform="translate(0.000000, 874.000000)">
                <g id="04_social" transform="translate(1068.000000, 194.000000)">
                    <g id="Group-8" transform="translate(44.000000, 38.000000)">
                        <g id="Group-3">
                            <mask id="mask-2" fill="white">
                                <use xlink:href="#path-1"></use>
                            </mask>
                            <g id="Clip-2"></g>
                            <path d="M14.8159528,0 L1.18013956,0 C0.529092875,0 -7.86240786e-06,0.516520885 -7.86240786e-06,1.15365111 L-7.86240786e-06,14.845484 C-7.86240786e-06,15.4826143 0.529092875,16 1.18013956,16 L14.8159528,16 C15.4682968,16 15.9995597,15.4826143 15.9995597,14.845484 L15.9995597,1.15365111 C15.9995597,0.516520885 15.4682968,0 14.8159528,0" id="Fill-1" mask="url(#mask-2)"></path>
                        </g>
                        <path d="M3.55902113,2.20270467 C4.31813661,2.20270467 4.93443145,2.81923538 4.93443145,3.57878329 C4.93443145,4.33852776 4.31813661,4.95509779 3.55902113,4.95509779 C2.79687862,4.95509779 2.1822742,4.33852776 2.1822742,3.57878329 C2.1822742,2.81923538 2.79687862,2.20270467 3.55902113,2.20270467 L3.55902113,2.20270467 Z M2.37065749,13.6337022 L4.74608747,13.6337022 L4.74608747,5.99828206 L2.37065749,5.99828206 L2.37065749,13.6337022 Z" id="Fill-4" fill="#FEFEFE"></path>
                        <path d="M6.23479509,5.9982742 L8.50954693,5.9982742 L8.50954693,7.04208747 L8.5420973,7.04208747 C8.85848059,6.44183194 9.63280983,5.80882948 10.7873258,5.80882948 C13.1900776,5.80882948 13.6341464,7.38976314 13.6341464,9.44617592 L13.6341464,13.6336943 L11.2612717,13.6336943 L11.2612717,9.9205543 C11.2612717,9.03516855 11.2460973,7.89602359 10.0282103,7.89602359 C8.79341916,7.89602359 8.60499656,8.86109484 8.60499656,9.85718329 L8.60499656,13.6336943 L6.23479509,13.6336943 L6.23479509,5.9982742 Z" id="Fill-6" fill="#FEFEFE"></path>
                    </g>
                </g>
            </g>
        </g>
    </g>
</svg>