<svg width="116px" height="62px" viewBox="0 0 116 62" version="1.1" xmlns="http://www.w3.org/2000/svg" xmlns:xlink="http://www.w3.org/1999/xlink" class="navigation-mobile__logo"><title>0BF0CB74-7C9F-48F3-8F39-B9A2A48AD432</title> <g id="h-styles" stroke="none" stroke-width="1" fill="none" fill-rule="evenodd"><g id="Navigatie-en-Headers-Styles-Desktop" transform="translate(-60.000000, -414.000000)"><g id="Group-1" transform="translate(60.000000, 413.000000)"><g id="logo/brand/RFH-116x64" transform="translate(0.000000, 1.000000)"><g id="Group-31"><path d="M40.540683,23.3425474 C43.6764487,27.0201221 45.3825862,31.6370812 45.3825862,36.5335391 C45.3825862,47.1253426 37.2599366,55.8563128 26.9169915,56.8240956 C23.7812258,53.146521 22.0750883,48.5303091 22.0750883,43.633104 C22.0750883,33.0413004 30.1969905,24.3103302 40.540683,23.3425474 M42.4553235,18.6336676 C28.6477907,18.6336676 17.4551398,29.8263185 17.4551398,43.633104 C17.4551398,50.6504634 20.346531,56.9929905 25.002351,61.5329755 C38.8091364,61.5329755 50.0017874,50.3403245 50.0017874,36.5335391 C50.0017874,29.5161796 47.1111435,23.1743998 42.4553235,18.6336676" id="Fill-1" fill="#0CC988"></path> <path d="M64.9733499,30.4468205 L61.8555199,26.897038 L61.1149232,26.897038 L61.1149232,30.4468205 L58.5673004,30.4468205 L58.5673004,20.10537 L63.8008007,20.10537 C66.039032,20.10537 67.5202254,21.4632552 67.5202254,23.4855102 C67.5202254,25.1834272 66.4709844,26.4023104 64.8037077,26.7729825 L68.0455932,30.4468205 L64.9733499,30.4468205 Z M63.5220494,24.7664212 C64.4330356,24.7664212 65.0196839,24.272441 65.0196839,23.5161505 C65.0196839,22.7755537 64.4330356,22.2815735 63.5220494,22.2815735 L61.1149232,22.2815735 L61.1149232,24.7664212 L63.5220494,24.7664212 Z" id="Fill-3" fill="#000000"></path> <path d="M77.0036748,26.5724758 C77.0036748,29.0266833 75.058394,30.6625725 72.7588823,30.6625725 C70.4130365,30.6625725 68.4677558,29.0266833 68.4677558,26.5724758 C68.4677558,24.1339621 70.4130365,22.4980729 72.7588823,22.4980729 C75.058394,22.4980729 77.0036748,24.1339621 77.0036748,26.5724758 M74.6264415,26.5724758 C74.6264415,25.3685391 73.7162025,24.5659146 72.7588823,24.5659146 C71.755228,24.5659146 70.844989,25.3685391 70.844989,26.5724758 C70.844989,27.7921063 71.755228,28.579037 72.7588823,28.579037 C73.7162025,28.579037 74.6264415,27.7921063 74.6264415,26.5724758" id="Fill-5" fill="#000000"></path> <polygon id="Fill-7" fill="#000000" points="81.7269779 33.0708197 79.0567942 33.0708197 80.307065 30.1846597 77.0958196 22.6822879 79.7518043 22.6822879 81.5879759 27.2058317 83.5489505 22.6822879 86.2034405 22.6822879"></polygon> <path d="M94.9814173,30.4468205 L92.511516,30.4468205 L92.511516,29.829532 C91.909174,30.3698463 91.1072968,30.6784905 90.1036425,30.6784905 C88.0507473,30.6784905 86.3214427,29.0269075 86.3214427,26.5727 C86.3214427,24.133439 88.0507473,22.4669095 90.1036425,22.4669095 C91.1072968,22.4669095 91.909174,22.7755537 92.511516,23.315868 L92.511516,22.6978322 L94.9814173,22.6978322 L94.9814173,30.4468205 Z M92.511516,26.5727 C92.511516,25.3837097 91.6162235,24.5661388 90.6133165,24.5661388 C89.532688,24.5661388 88.7457573,25.3837097 88.7457573,26.5727 C88.7457573,27.7766367 89.532688,28.5792612 90.6133165,28.5792612 C91.6162235,28.5792612 92.511516,27.7766367 92.511516,26.5727 L92.511516,26.5727 Z" id="Fill-9" fill="#000000"></path> <polygon id="Fill-11" fill="#000000" points="96.7902369 30.446671 99.2601382 30.446671 99.2601382 19.3332363 96.7902369 19.3332363"></polygon> <polygon id="Fill-13" fill="#000000" points="61.1145495 39.3468351 65.9616841 39.3468351 65.9616841 41.5693726 61.1145495 41.5693726 61.1145495 45.2738508 58.567674 45.2738508 58.567674 34.9324003 66.5632788 34.9324003 66.5632788 37.1698843 61.1145495 37.1698843"></polygon> <polygon id="Fill-14" fill="#000000" points="67.6992092 45.2750465 70.1691104 45.2750465 70.1691104 34.1608645 67.6992092 34.1608645"></polygon> <path d="M80.0336943,41.3995809 C80.0336943,43.8537884 78.0884136,45.4896776 75.7889018,45.4896776 C73.4430561,45.4896776 71.4977753,43.8537884 71.4977753,41.3995809 C71.4977753,38.9610671 73.4430561,37.3244306 75.7889018,37.3244306 C78.0884136,37.3244306 80.0336943,38.9610671 80.0336943,41.3995809 M77.6564611,41.3995809 C77.6564611,40.1956441 76.7454748,39.3930196 75.7889018,39.3930196 C74.7852476,39.3930196 73.8750086,40.1956441 73.8750086,41.3995809 C73.8750086,42.6192114 74.7852476,43.4061421 75.7889018,43.4061421 C76.7454748,43.4061421 77.6564611,42.6192114 77.6564611,41.3995809" id="Fill-15" fill="#000000"></path> <path d="M87.0644309,37.4789022 L86.9560691,39.9488034 L86.5084228,39.9488034 C84.7806129,39.9488034 83.8382391,40.844096 83.8382391,42.8506572 L83.8382391,45.2734771 L81.3690851,45.2734771 L81.3690851,37.5252362 L83.8382391,37.5252362 L83.8382391,39.0071769 C84.3942471,38.0812442 85.2432056,37.4168744 86.5084228,37.4168744 C86.7251464,37.4168744 86.8790948,37.4325682 87.0644309,37.4789022" id="Fill-16" fill="#000000"></path> <path d="M96.338331,45.2739255 L93.8684297,45.2739255 L93.8684297,44.6558897 C93.2660877,45.1969513 92.4642105,45.5055955 91.4598089,45.5055955 C89.4076609,45.5055955 87.6783564,43.8540126 87.6783564,41.3998051 C87.6783564,38.960544 89.4076609,37.2932672 91.4598089,37.2932672 C92.4642105,37.2932672 93.2660877,37.6026588 93.8684297,38.1429731 L93.8684297,37.5249372 L96.338331,37.5249372 L96.338331,45.2739255 Z M93.8684297,41.3998051 C93.8684297,40.2108148 92.9731372,39.3932438 91.9702302,39.3932438 C90.8888544,39.3932438 90.102671,40.2108148 90.102671,41.3998051 C90.102671,42.6037418 90.8888544,43.4063663 91.9702302,43.4063663 C92.9731372,43.4063663 93.8684297,42.6037418 93.8684297,41.3998051 L93.8684297,41.3998051 Z" id="Fill-17" fill="#000000"></path> <polygon id="Fill-18" fill="#000000" points="67.9988108 60.1011053 65.4676291 60.1011053 65.4676291 56.0110086 61.1144748 56.0110086 61.1144748 60.1011053 58.5675993 60.1011053 58.5675993 49.7589075 61.1144748 49.7589075 61.1144748 53.7877238 65.4676291 53.7877238 65.4676291 49.7589075 67.9988108 49.7589075"></polygon> <path d="M77.8898499,56.2266859 C77.8898499,58.6808934 75.9445691,60.3167826 73.6450574,60.3167826 C71.2992117,60.3167826 69.3539309,58.6808934 69.3539309,56.2266859 C69.3539309,53.7881722 71.2992117,52.1515356 73.6450574,52.1515356 C75.9445691,52.1515356 77.8898499,53.7881722 77.8898499,56.2266859 M75.5126167,56.2266859 C75.5126167,55.0227492 74.6016304,54.2201247 73.6450574,54.2201247 C72.6421505,54.2201247 71.7311642,55.0227492 71.7311642,56.2266859 C71.7311642,57.4463164 72.6421505,58.2332472 73.6450574,58.2332472 C74.6016304,58.2332472 75.5126167,57.4463164 75.5126167,56.2266859" id="Fill-19" fill="#000000"></path> <polygon id="Fill-20" fill="#000000" points="79.2445964 60.1011801 81.7144977 60.1011801 81.7144977 48.986998 79.2445964 48.986998"></polygon> <polygon id="Fill-21" fill="#000000" points="83.4961148 60.1011801 85.9660161 60.1011801 85.9660161 48.986998 83.4961148 48.986998"></polygon> <path d="M95.9799898,60.1008811 L93.5100885,60.1008811 L93.5100885,59.4835926 C92.9077465,60.0239069 92.1058693,60.3325511 91.102215,60.3325511 C89.0493197,60.3325511 87.3207625,58.6809681 87.3207625,56.2267606 C87.3207625,53.7874996 89.0493197,52.1209701 91.102215,52.1209701 C92.1058693,52.1209701 92.9077465,52.4296144 93.5100885,52.9699286 L93.5100885,52.3518928 L95.9799898,52.3518928 L95.9799898,60.1008811 Z M93.5100885,56.2267606 C93.5100885,55.0377703 92.614796,54.2201994 91.611889,54.2201994 C90.5312605,54.2201994 89.7443298,55.0377703 89.7443298,56.2267606 C89.7443298,57.4306974 90.5312605,58.2333219 91.611889,58.2333219 C92.614796,58.2333219 93.5100885,57.4306974 93.5100885,56.2267606 L93.5100885,56.2267606 Z" id="Fill-22" fill="#000000"></path> <path d="M105.647206,55.3467135 L105.647206,60.1011801 L103.192998,60.1011801 L103.192998,55.871334 C103.192998,54.961095 102.652684,54.3438066 101.865753,54.3438066 C100.893487,54.3438066 100.260504,55.007429 100.260504,56.5043163 L100.260504,60.1011801 L97.790603,60.1011801 L97.790603,52.3521918 L100.260504,52.3521918 L100.260504,53.0927885 C100.846405,52.4762473 101.665471,52.1205218 102.63699,52.1205218 C104.443269,52.1205218 105.647206,53.4014327 105.647206,55.3467135" id="Fill-23" fill="#000000"></path> <path d="M115.59392,60.1008811 L113.124019,60.1008811 L113.124019,59.4835926 C112.522424,60.0239069 111.7198,60.3325511 110.716146,60.3325511 C108.66325,60.3325511 106.934693,58.6809681 106.934693,56.2267606 C106.934693,53.7874996 108.66325,52.1209701 110.716146,52.1209701 C111.7198,52.1209701 112.522424,52.4296144 113.124019,52.9699286 L113.124019,48.9866991 L115.59392,48.9866991 L115.59392,60.1008811 Z M113.124019,56.2267606 C113.124019,55.0377703 112.228727,54.2201994 111.22582,54.2201994 C110.145191,54.2201994 109.35826,55.0377703 109.35826,56.2267606 C109.35826,57.4306974 110.145191,58.2333219 111.22582,58.2333219 C112.228727,58.2333219 113.124019,57.4306974 113.124019,56.2267606 L113.124019,56.2267606 Z" id="Fill-24" fill="#000000"></path> <polygon id="Fill-25" fill="#3A4D41" points="23.1102048 11.5334301 26.8894153 11.5334301 26.8894153 0 23.1102048 0"></polygon> <polygon id="Fill-26" fill="#3A4D41" points="16.2769857 13.0297941 13.6262323 3.78317132 17.2597149 2.74140358 19.9104683 11.9880264"></polygon> <polygon id="Fill-27" fill="#3A4D41" points="10.0957308 16.3701021 6.00638139 9.82505054 9.21164813 7.8222259 13.3009975 14.3672774"></polygon> <polygon id="Fill-28" fill="#3A4D41" points="33.7552925 13.0297941 30.1225572 11.9880264 32.7740579 2.74140358 36.4067931 3.78317132"></polygon> <polygon id="Fill-29" fill="#3A4D41" points="39.9369957 16.3701021 36.731729 14.3672774 40.8218257 7.8222259 44.0270925 9.82505054"></polygon> <path d="M7.54721118,18.6335928 C2.89139123,23.1743251 0,29.5161049 0,36.5334643 C0,50.3402498 11.1926509,61.5329007 24.9994364,61.5329007 C29.6560037,56.9929158 32.5473949,50.6503887 32.5473949,43.6330293 C32.5473949,29.8262438 21.3539967,18.6335928 7.54721118,18.6335928 M9.46110442,23.3424727 C19.8047969,24.3102555 27.9274465,33.0412257 27.9274465,43.6330293 C27.9274465,48.5302344 26.2205616,53.1464463 23.0855432,56.8240209 C12.7418507,55.8562381 4.61994846,47.1252679 4.61994846,36.5334643 C4.61994846,31.6370065 6.32608601,27.0200473 9.46110442,23.3424727" id="Fill-30" fill="#3A4D41"></path></g></g></g></g></g></svg>