<svg width="16px" height="16px" viewBox="0 0 16 16" version="1.1" xmlns="http://www.w3.org/2000/svg" xmlns:xlink="http://www.w3.org/1999/xlink" class="navigation-mobile__icon">
<title>DC64A2E8-F696-4708-BBF0-FCF622703980</title>
<g id="h-styles" stroke="none" stroke-width="1" fill="none" fill-rule="evenodd">
<g id="Navigatie-en-Headers-Styles-Desktop" transform="translate(-1272.000000, -654.000000)" fill="#000000">
<g id="Group-2" transform="translate(0.000000, 382.000000)"><g id="navigation/desktop1440/header" transform="translate(0.000000, 224.000000)">
<g id="04_inlog" transform="translate(1268.000000, 44.000000)">
<g id="interaction/icon/24x24/account" transform="translate(4.000000, 4.000000)">
<path d="M3.1236,9.9998 C4.3846,11.2308 6.0986,11.9998 7.9996,11.9998 C9.9016,11.9998 11.6156,11.2308 12.8766,9.9998 L12.8766,9.9998 L13.6206,9.9998 C14.6046,10.7908 15.4156,11.7838 15.9996,12.9128 L15.9996,12.9128 L15.9996,15.9998 L14.9196,15.9998 C14.7206,14.6368 14.1256,13.3568 13.2066,12.3328 C11.6946,13.4068 9.8766,13.9998 7.9996,13.9998 C6.1236,13.9998 4.3056,13.4068 2.7936,12.3328 C1.8746,13.3568 1.2796,14.6368 1.0796,15.9998 L1.0796,15.9998 L-0.000400000001,15.9998 L-0.000400000001,12.9128 C0.5846,11.7838 1.3956,10.7908 2.3796,9.9998 L2.3796,9.9998 Z M7.9996,-0.0002 C10.7616,-0.0002 12.9996,2.2388 12.9996,4.9998 C12.9996,7.7618 10.7616,9.9998 7.9996,9.9998 C5.2386,9.9998 2.9996,7.7618 2.9996,4.9998 C2.9996,2.2388 5.2386,-0.0002 7.9996,-0.0002 Z M7.9996,1.9998 C6.3466,1.9998 4.9996,3.3458 4.9996,4.9998 C4.9996,6.6538 6.3466,7.9998 7.9996,7.9998 C9.6536,7.9998 10.9996,6.6538 10.9996,4.9998 C10.9996,3.3458 9.6536,1.9998 7.9996,1.9998 Z" id="Combined-Shape">
</path></g></g></g></g></g></g></svg>