<svg style="fill: currentColor" width="16px" height="16px" viewBox="0 0 16 16" version="1.1" xmlns="http://www.w3.org/2000/svg" xmlns:xlink="http://www.w3.org/1999/xlink">
    <title>51831249-79CC-44C7-B254-D172521D4522</title>
    <g id="h-styles">
        <g id="Vormtaal-headers-en-footer-styles-Desktop-" transform="translate(-732.000000, -580.000000)">
            <g id="navigation/desktop1440/footer" transform="translate(0.000000, 412.000000)">
                <g id="02_menu" transform="translate(396.000000, 66.000000)">
                    <g id="icon/24x24/social/whatsapp" transform="translate(336.000000, 102.000000)">
                        <path d="M11.6062328,9.58522375 C11.40819,9.48614537 10.4345463,9.00705748 10.2529976,8.94092922 C10.0714489,8.87483895 9.93942043,8.84181283 9.80739192,9.0400076 C9.67536342,9.23827838 9.29584798,9.68437815 9.18027553,9.81659667 C9.0647791,9.94870119 8.94924466,9.96530926 8.7512399,9.86615487 C8.55315914,9.76700048 7.91502138,9.55789834 7.15857482,8.88312399 C6.56980523,8.35801235 6.17235154,7.70949929 6.0568171,7.5111905 C5.94132067,7.31295772 6.04454157,7.20578432 6.14369596,7.10700998 C6.2327791,7.01826888 6.34173872,6.87567506 6.44074109,6.76006461 C6.53978147,6.64441615 6.5727696,6.56175582 6.63878385,6.42968931 C6.7047981,6.29747078 6.67180998,6.18182233 6.62228979,6.08270594 C6.5727696,5.98358955 6.17668409,5.00872969 6.01166746,4.61215012 C5.85090736,4.22605986 5.68763895,4.27835439 5.56606176,4.27219762 C5.45067933,4.26645891 5.31849881,4.26524276 5.18650831,4.26524276 C5.05447981,4.26524276 4.83990499,4.31480095 4.6583943,4.51303373 C4.47684561,4.71134252 3.96522565,5.19046841 3.96522565,6.16525226 C3.96522565,7.14007411 4.67488836,8.08175582 4.77392874,8.21393634 C4.87293112,8.34615487 6.1704133,10.3464969 8.15711164,11.2043781 C8.6296247,11.4084257 8.99853682,11.5303069 9.28611876,11.6215183 C9.76057007,11.7723211 10.192304,11.7510385 10.5335107,11.7000361 C10.9140143,11.643181 11.7052352,11.2209482 11.8702898,10.7583544 C12.0353064,10.2956846 12.0353064,9.899181 11.9857862,9.81659667 C11.936304,9.73397435 11.8042755,9.68437815 11.6062328,9.58522375 M7.99266508,14.5191905 L7.99000475,14.5191905 C6.80790499,14.5187344 5.64845606,14.2011667 4.63695962,13.6009197 L4.39642755,13.4581359 L1.90304988,14.1121976 L2.56855107,11.6811857 L2.41193349,11.4319506 C1.75247506,10.3830575 1.40419952,9.17081995 1.40469306,7.92601235 C1.40613777,4.29374632 4.36146318,1.33864893 7.99528741,1.33864893 C9.75490736,1.33925701 11.4089881,2.02543278 12.6528076,3.27065843 C13.8965891,4.51584608 14.5811686,6.17106698 14.580523,7.93129501 C14.5790404,11.5638651 11.623715,14.5191905 7.99266508,14.5191905 M13.5994299,2.32445416 C12.1029929,0.826268884 10.1129121,0.000843705463 7.99258907,7.60095008e-06 C3.62382898,7.60095008e-06 0.0681805226,3.55539002 0.066432304,7.92548029 C0.0658622328,9.32245891 0.430821853,10.6859933 1.12444656,11.8880456 L0,15.995257 L4.20172922,14.8930432 C5.35942993,15.5244922 6.66287886,15.8573378 7.98943468,15.8577938 L7.99266508,15.8577938 L7.99270309,15.8577938 C12.3610071,15.8577938 15.9169976,12.3020314 15.9187464,7.93182708 C15.9195439,5.81401235 15.095867,3.82260143 13.5994299,2.32445416" id="Fill-1"></path>
                    </g>
                </g>
            </g>
        </g>
    </g>
</svg>