<svg style="fill: currentColor" width="21px" height="15px" viewBox="0 0 21 15" version="1.1" xmlns="http://www.w3.org/2000/svg" xmlns:xlink="http://www.w3.org/1999/xlink">
    <title>0B4B8F11-B445-4153-B059-EE5A5F6C8BD7</title>
    <g id="h-styles">
        <g id="Navigatie-en-Headers-Styles-Desktop" transform="translate(-1150.000000, -1107.000000)">
            <g id="Group-3" transform="translate(0.000000, 874.000000)">
                <g id="04_social" transform="translate(1068.000000, 194.000000)">
                    <g id="Group" transform="translate(82.000000, 39.000000)">
                        <path d="M19.8047175,2.22536151 C19.5721022,1.3493761 18.8867832,0.659574947 18.0163144,0.425465491 C16.439035,-1.54079648e-14 10.1137124,-1.54079648e-14 10.1137124,-1.54079648e-14 C10.1137124,-1.54079648e-14 3.78838978,-1.54079648e-14 2.21099544,0.425465491 C1.34064153,0.659574947 0.655207662,1.3493761 0.422592277,2.22536151 C1.62189103e-14,3.81298449 1.62189103e-14,7.12557008 1.62189103e-14,7.12557008 C1.62189103e-14,7.12557008 1.62189103e-14,10.4380407 0.422592277,12.0258936 C0.655207662,12.9017641 1.34064153,13.5915652 2.21099544,13.8257896 C3.78838978,14.2511402 10.1137124,14.2511402 10.1137124,14.2511402 C10.1137124,14.2511402 16.439035,14.2511402 18.0163144,13.8257896 C18.8867832,13.5915652 19.5721022,12.9017641 19.8047175,12.0258936 C20.2274247,10.4380407 20.2274247,7.12557008 20.2274247,7.12557008 C20.2274247,7.12557008 20.2274247,3.81298449 19.8047175,2.22536151" id="Fill-1"></path>
                        <polygon id="Fill-4" fill="#FFFFFF" points="8.04499848 10.1331238 13.3317118 7.12567352 8.04499848 4.11799337"></polygon>
                    </g>
                </g>
            </g>
        </g>
    </g>
</svg>