<svg width="16px" height="16px" viewBox="0 0 16 16" version="1.1" xmlns="http://www.w3.org/2000/svg" xmlns:xlink="http://www.w3.org/1999/xlink" class="navigation-mobile__icon">
<title>3606BCC9-DD9F-437B-8E42-170F43E3D6C5</title> <g id="h-styles" stroke="none" stroke-width="1" fill="none" fill-rule="evenodd">
<g id="Navigatie-en-Headers-Styles-Desktop" transform="translate(-1360.000000, -654.000000)" fill="black"><g id="Group-2" transform="translate(0.000000, 382.000000)"><g id="navigation/desktop1440/header" transform="translate(0.000000, 224.000000)"><g id="05_zoeken" transform="translate(1356.000000, 44.000000)"><g id="interaction/icon/32x32/search" transform="translate(4.000000, 4.000000)">
<path d="M2.0004,6.9998 C2.0004,4.2428 4.2424,1.9998 7.0004,1.9998 C9.7574,1.9998 12.0004,4.2428 12.0004,6.9998 C12.0004,9.7568 9.7574,11.9998 7.0004,11.9998 C4.2424,11.9998 2.0004,9.7568 2.0004,6.9998 L2.0004,6.9998 Z M12.6024,11.1848 C13.4764,10.0168 14.0004,8.5708 14.0004,6.9998 C14.0004,3.1348 10.8654,-0.0002 7.0004,-0.0002 C3.1344,-0.0002 0.000400000001,3.1348 0.000400000001,6.9998 C0.000400000001,10.8658 3.1344,13.9998 7.0004,13.9998 C8.5724,13.9998 
10.0204,13.4748 11.1884,12.5988 L14.5894,15.9998 L16.0024,15.9998 L16.0024,14.5848 L12.6024,11.1848 Z" id="Fill-1"></path></g></g></g></g></g></g></svg>